<svg xmlns="http://www.w3.org/2000/svg" xmlns:xlink="http://www.w3.org/1999/xlink" xmlns:lucid="lucid" width="1753" height="1205"><g transform="translate(-191 0)" lucid:page-tab-id="0_0"><path d="M380 106a6 6 0 0 1 6-6h348a6 6 0 0 1 6 6v143a6 6 0 0 1-6 6H386a6 6 0 0 1-6-6z" stroke="#3a414a" stroke-width="2" fill="#fff"/><path d="M380 164.4h360" stroke="#3a414a" stroke-width="2" fill="none"/><use xlink:href="#a" transform="matrix(1,0,0,1,388,108) translate(100.6962890625 19.67578125)"/><use xlink:href="#b" transform="matrix(1,0,0,1,388,108) translate(147.4345703125 43.875)"/><use xlink:href="#c" transform="matrix(1,0,0,1,392,172.3984375) translate(0 45.583767361111114)"/><use xlink:href="#d" transform="matrix(1,0,0,1,392,172.3984375) translate(20.95269097222222 45.583767361111114)"/><use xlink:href="#e" transform="matrix(1,0,0,1,392,172.3984375) translate(197.49348958333334 45.583767361111114)"/><use xlink:href="#f" transform="matrix(1,0,0,1,392,172.3984375) translate(210.14539930555557 45.583767361111114)"/><path d="M240 366a6 6 0 0 1 6-6h628a6 6 0 0 1 6 6v164a6 6 0 0 1-6 6H246a6 6 0 0 1-6-6z" stroke="#3a414a" stroke-width="2" fill="#fff"/><path d="M240 424.4h640" stroke="#3a414a" stroke-width="2" fill="none"/><use xlink:href="#g" transform="matrix(1,0,0,1,248,368) translate(312 19.67578125)"/><use xlink:href="#h" transform="matrix(1,0,0,1,248,368) translate(245.0908203125 43.875)"/><use xlink:href="#i" transform="matrix(1,0,0,1,252,432.3984375) translate(0 42.17491319444444)"/><use xlink:href="#j" transform="matrix(1,0,0,1,252,432.3984375) translate(560.0911458333335 42.17491319444444)"/><use xlink:href="#k" transform="matrix(1,0,0,1,252,432.3984375) translate(0 66.74956597222223)"/><use xlink:href="#l" transform="matrix(1,0,0,1,252,432.3984375) translate(224.0364583333333 66.74956597222223)"/><path d="M740 641a6 6 0 0 1 6-6h628a6 6 0 0 1 6 6v179a6 6 0 0 1-6 6H746a6 6 0 0 1-6-6z" stroke="#3a414a" stroke-width="2" fill="#fff"/><path d="M740 699.4h640" stroke="#3a414a" stroke-width="2" fill="none"/><use xlink:href="#m" transform="matrix(1,0,0,1,748,643) translate(312.5 19.67578125)"/><use xlink:href="#n" transform="matrix(1,0,0,1,748,643) translate(264.8388671875 43.875)"/><use xlink:href="#o" transform="matrix(1,0,0,1,752,707.3984375) translate(0 49.67491319444444)"/><use xlink:href="#j" transform="matrix(1,0,0,1,752,707.3984375) translate(548.8893229166669 49.67491319444444)"/><use xlink:href="#p" transform="matrix(1,0,0,1,752,707.3984375) translate(0 74.24956597222223)"/><use xlink:href="#l" transform="matrix(1,0,0,1,752,707.3984375) translate(212.83463541666663 74.24956597222223)"/><path d="M560 358.5v-1.98m0-3.97v-3.97m0-3.97v-3.95m0-3.97v-3.97m0-3.96v-3.96m0-3.97v-3.96m0-3.97v-3.96m0-3.96v-3.97m0-3.97v-3.96m0-3.97v-3.97m0-3.97v-1.98" stroke="#3a414a" fill="none"/><path d="M560.48 359h-.96v-.5h.96z" stroke="#3a414a" stroke-width=".05" fill="#3a414a"/><path d="M560 257l12.5 21.65h-25z" stroke="#3a414a" fill="#fff"/><path d="M1060 633.5v-42a6 6 0 0 0-6-6H566a6 6 0 0 1-6-6v-19.35" stroke="#3a414a" fill="none"/><path d="M1060.47 634h-.94v-.5h.94z" stroke="#3a414a" stroke-width=".05" fill="#3a414a"/><path d="M560 538l12.5 21.65h-25z" stroke="#3a414a" fill="#fff"/><path d="M840 966a6 6 0 0 1 6-6h428a6 6 0 0 1 6 6v141a6 6 0 0 1-6 6H846a6 6 0 0 1-6-6z" stroke="#3a414a" stroke-width="2" fill="#fff"/><path d="M840 1024.4h440" stroke="#3a414a" stroke-width="2" fill="none"/><g><use xlink:href="#q" transform="matrix(1,0,0,1,848,968) translate(212 19.67578125)"/><use xlink:href="#r" transform="matrix(1,0,0,1,848,968) translate(103.3037109375 43.875)"/></g><g><use xlink:href="#s" transform="matrix(1,0,0,1,852,1032.3984375) translate(0 44.583767361111114)"/><use xlink:href="#e" transform="matrix(1,0,0,1,852,1032.3984375) translate(157.21571180555554 44.583767361111114)"/><use xlink:href="#t" transform="matrix(1,0,0,1,852,1032.3984375) translate(169.86762152777777 44.583767361111114)"/></g><path d="M1440 966a6 6 0 0 1 6-6h428a6 6 0 0 1 6 6v141a6 6 0 0 1-6 6h-428a6 6 0 0 1-6-6z" stroke="#3a414a" stroke-width="2" fill="#fff"/><path d="M1440 1024.4h440" stroke="#3a414a" stroke-width="2" fill="none"/><g><use xlink:href="#q" transform="matrix(1,0,0,1,1448,968) translate(212 19.67578125)"/><use xlink:href="#u" transform="matrix(1,0,0,1,1448,968) translate(130.5400390625 43.875)"/></g><path d="M1281.5 1036.5h127.13" stroke="#3a414a" fill="none"/><path d="M1281.5 1036.97h-.5v-.94h.5z" stroke="#3a414a" stroke-width=".05" fill="#3a414a"/><path d="M1438.3 1036.5l-14.86-14.85-14.85 14.85 14.84 14.85z" stroke="#3a414a" fill="#3a414a"/><path d="M1060 958.5V857.37" stroke="#3a414a" fill="none"/><path d="M1060.47 959h-.94v-.5h.94z" stroke="#3a414a" stroke-width=".05" fill="#3a414a"/><path d="M1060 827.7l-14.85 14.86L1060 857.4l14.85-14.84z" stroke="#3a414a" fill="#3a414a"/><defs><path d="M166-471v-247l1019-454v289L492-601v13l693 282v287" id="v"/><path d="M128 0v-1118h300V0H128zm150-1264c-91 0-165-68-165-154 0-85 74-154 165-154 90 0 165 69 165 154 0 86-75 154-165 154" id="w"/><path d="M428-647V0H128v-1118h283l4 231c63-156 176-245 348-245 232 0 384 159 384 421V0H847v-659c0-139-76-222-202-222-128 0-217 86-217 234" id="x"/><path d="M683-1118v229H474v562c0 71 29 104 102 104 23 0 73-7 95-13l43 225C647 9 580 16 520 16 296 16 174-96 174-301v-588H20v-229h154v-266h300v266h209" id="y"/><path d="M633 22C291 22 81-200 81-553c0-345 210-579 537-579 292 0 525 185 525 567v84H378c7 183 109 277 260 277 105 0 184-46 216-132l272 51C1071-99 893 22 633 22zM380-669h474c-15-146-94-237-233-237-143 0-229 99-241 237" id="z"/><path d="M128 0v-1118h290v195h12c54-169 184-238 367-200v268c-27-8-86-15-130-15-138 0-239 95-239 234V0H128" id="A"/><path d="M750-1118v229H516V0H217v-889H20v-229h197v-86c0-238 156-356 363-356 94 0 178 20 215 31l-54 226c-25-7-61-15-100-15-123-3-131 84-125 200h234" id="B"/><path d="M440 22C227 22 68-92 68-313c0-250 202-322 422-343 195-21 271-24 271-105 0-95-63-149-175-149-116 0-187 57-211 129l-275-46c57-194 237-305 487-305 240 0 474 108 474 379V0H777v-155h-10C713-51 605 22 440 22zm85-211c140 0 238-93 238-211v-121c-37 26-156 42-222 51-111 16-185 59-185 149 0 87 70 132 169 132" id="C"/><path d="M628 22C291 22 81-210 81-554c0-346 210-578 547-578 265 0 455 142 497 372l-279 52c-25-116-99-188-215-188-160 0-244 139-244 341 0 200 84 341 244 341 116 0 193-74 217-195l279 51C1085-123 896 22 628 22" id="D"/><path d="M1224-471L205-19v-287l694-281v-14L205-883v-289l1019 454v247" id="E"/><g id="a"><use transform="matrix(0.009765625,0,0,0.009765625,0,0)" xlink:href="#v"/><use transform="matrix(0.009765625,0,0,0.009765625,13.57421875,0)" xlink:href="#v"/><use transform="matrix(0.009765625,0,0,0.009765625,27.1484375,0)" xlink:href="#w"/><use transform="matrix(0.009765625,0,0,0.009765625,32.568359375,0)" xlink:href="#x"/><use transform="matrix(0.009765625,0,0,0.009765625,45.01953125,0)" xlink:href="#y"/><use transform="matrix(0.009765625,0,0,0.009765625,52.1484375,0)" xlink:href="#z"/><use transform="matrix(0.009765625,0,0,0.009765625,64.0625,0)" xlink:href="#A"/><use transform="matrix(0.009765625,0,0,0.009765625,72.59765625,0)" xlink:href="#B"/><use transform="matrix(0.009765625,0,0,0.009765625,80.166015625,0)" xlink:href="#C"/><use transform="matrix(0.009765625,0,0,0.009765625,91.77734375,0)" xlink:href="#D"/><use transform="matrix(0.009765625,0,0,0.009765625,103.544921875,0)" xlink:href="#z"/><use transform="matrix(0.009765625,0,0,0.009765625,115.458984375,0)" xlink:href="#E"/><use transform="matrix(0.009765625,0,0,0.009765625,129.033203125,0)" xlink:href="#E"/></g><path d="M135 0v-1490h591c327 0 492 160 492 383 0 177-115 286-268 320v15c168 8 326 140 326 361 0 236-176 411-512 411H135zm305-251h264c179 0 258-76 258-189 0-125-97-215-250-215H440v404zm0-613h241c131 0 228-74 228-194 0-109-79-183-222-183H440v377" id="F"/><path d="M428-1490V0H128v-1490h300" id="G"/><path d="M537 19C279 19 81-185 81-557c0-382 206-575 454-575 190 0 278 113 318 202h10v-560h300V0H868v-179h-15C812-89 719 19 537 19zm92-241c153 0 240-134 240-336 0-203-86-334-240-334-158 0-240 138-240 334 0 197 84 336 240 336" id="H"/><g id="b"><use transform="matrix(0.009765625,0,0,0.009765625,0,0)" xlink:href="#F"/><use transform="matrix(0.009765625,0,0,0.009765625,13.232421875,0)" xlink:href="#G"/><use transform="matrix(0.009765625,0,0,0.009765625,18.65234375,0)" xlink:href="#w"/><use transform="matrix(0.009765625,0,0,0.009765625,24.072265625,0)" xlink:href="#x"/><use transform="matrix(0.009765625,0,0,0.009765625,36.5234375,0)" xlink:href="#H"/></g><path d="M593-100v-404H195v-159h398v-403h169v403h398v159H762v404H593" id="I"/><use transform="matrix(0.010850694444444444,0,0,0.010850694444444444,0,0)" xlink:href="#I" id="c"/><path d="M611 442c-248 0-391-105-460-228l146-94c47 65 117 165 314 165 178 0 307-82 307-266v-224h-17C863-141 792-18 576-18c-268 0-472-195-472-546 0-346 197-568 476-568 216 0 288 133 326 193h17v-179h175V29c0 289-215 413-487 413zm-5-620c203 0 314-146 314-390 0-237-108-403-314-403-213 0-319 180-319 403 0 230 109 390 319 390" id="J"/><path d="M628 24c-324 0-524-230-524-574 0-343 198-582 503-582 237 0 487 146 487 559v75H286c9 234 145 362 343 362 132 0 231-58 273-172l174 48C1024-91 857 24 628 24zM287-650h624c-17-190-120-322-304-322-192 0-309 151-320 322" id="K"/><path d="M598-1118v154H368v674c0 100 37 144 132 144 23 0 62-6 92-12L629-6c-37 13-88 20-134 20-193 0-307-107-307-290v-688H20v-154h168v-266h180v266h230" id="L"/><path d="M645 0H180v-1490h484c435 0 692 280 692 742 0 466-257 748-711 748zM370-168h263c363 0 539-218 539-580 0-358-176-574-521-574H370v1154" id="M"/><path d="M538 24C308 24 148-78 108-271l171-41c32 123 123 178 257 178 156 0 256-77 256-169 0-77-54-128-164-154l-186-44c-203-48-300-148-300-305 0-192 176-326 414-326 230 0 351 112 402 269l-163 42c-31-80-94-158-238-158-133 0-233 69-233 162 0 83 57 129 188 160l169 40c203 48 298 149 298 302 0 196-179 339-441 339" id="N"/><path d="M613 24c-304 0-509-231-509-576 0-350 205-580 509-580 216 0 392 114 453 309l-173 49c-33-115-133-197-280-197-223 0-326 196-326 419 0 220 103 415 326 415 150 0 252-85 285-206l172 49C1010-95 832 24 613 24" id="O"/><path d="M158 0v-1118h174v172h12c41-113 157-188 290-188 26 0 70 2 91 3v181c-11-2-60-10-108-10-161 0-279 109-279 260V0H158" id="P"/><path d="M158 0v-1118h180V0H158zm91-1301c-68 0-125-53-125-119s57-119 125-119c69 0 126 53 126 119s-57 119-126 119" id="Q"/><path d="M158 418v-1536h174v179h20c37-59 106-193 324-193 279 0 474 222 474 576 0 356-194 580-473 580-213 0-288-135-325-197h-14v591H158zm492-555c209 0 317-186 317-421 0-232-105-413-317-413-206 0-314 166-314 413 0 249 111 421 314 421" id="R"/><path d="M613 24c-304 0-509-231-509-576 0-350 205-580 509-580 305 0 511 230 511 580 0 345-206 576-511 576zm0-161c226 0 329-195 329-415 0-222-103-419-329-419-223 0-326 196-326 419 0 220 103 415 326 415" id="S"/><path d="M338-670V0H158v-1118h173l1 207c72-158 192-221 342-221 226 0 378 139 378 422V0H872v-695c0-172-96-275-252-275-161 0-282 109-282 300" id="T"/><path d="M218-607c0-325 108-727 258-974h175c-155 315-250 682-250 974 0 265 78 531 250 886H476C306-10 218-315 218-607" id="U"/><path d="M96 279C273-86 346-350 346-607c0-292-95-659-250-974h175c150 246 258 650 258 974 0 297-91 602-258 886H96" id="V"/><g id="d"><use transform="matrix(0.010850694444444444,0,0,0.010850694444444444,0,0)" xlink:href="#J"/><use transform="matrix(0.010850694444444444,0,0,0.010850694444444444,13.628472222222221,0)" xlink:href="#K"/><use transform="matrix(0.010850694444444444,0,0,0.010850694444444444,26.58420138888889,0)" xlink:href="#L"/><use transform="matrix(0.010850694444444444,0,0,0.010850694444444444,33.854166666666664,0)" xlink:href="#M"/><use transform="matrix(0.010850694444444444,0,0,0.010850694444444444,49.89149305555556,0)" xlink:href="#K"/><use transform="matrix(0.010850694444444444,0,0,0.010850694444444444,62.84722222222222,0)" xlink:href="#N"/><use transform="matrix(0.010850694444444444,0,0,0.010850694444444444,74.57682291666667,0)" xlink:href="#O"/><use transform="matrix(0.010850694444444444,0,0,0.010850694444444444,87.27213541666667,0)" xlink:href="#P"/><use transform="matrix(0.010850694444444444,0,0,0.010850694444444444,95.98524305555557,0)" xlink:href="#Q"/><use transform="matrix(0.010850694444444444,0,0,0.010850694444444444,101.36718750000001,0)" xlink:href="#R"/><use transform="matrix(0.010850694444444444,0,0,0.010850694444444444,114.97395833333334,0)" xlink:href="#L"/><use transform="matrix(0.010850694444444444,0,0,0.010850694444444444,122.2439236111111,0)" xlink:href="#Q"/><use transform="matrix(0.010850694444444444,0,0,0.010850694444444444,127.62586805555556,0)" xlink:href="#S"/><use transform="matrix(0.010850694444444444,0,0,0.010850694444444444,140.95052083333334,0)" xlink:href="#T"/><use transform="matrix(0.010850694444444444,0,0,0.010850694444444444,154.07986111111111,0)" xlink:href="#U"/><use transform="matrix(0.010850694444444444,0,0,0.010850694444444444,162.18532986111111,0)" xlink:href="#V"/></g><path d="M295 13c-75 0-135-60-135-135s60-135 135-135 135 60 135 135S370 13 295 13zm0-809c-75 0-135-60-135-135s60-135 135-135 135 60 135 135-60 135-135 135" id="W"/><use transform="matrix(0.010850694444444444,0,0,0.010850694444444444,0,0)" xlink:href="#W" id="e"/><path d="M657 26c-323 0-524-166-541-416h195c15 169 171 246 346 246 202 0 356-106 356-265 5-203-294-238-475-293-239-73-380-191-380-389 0-252 224-419 512-419 294 0 499 171 508 396H992c-17-145-151-228-328-228-193 0-321 102-321 242 0 156 175 211 284 241l149 41c160 44 422 134 422 412 0 244-197 432-541 432" id="X"/><g id="f"><use transform="matrix(0.010850694444444444,0,0,0.010850694444444444,0,0)" xlink:href="#X"/><use transform="matrix(0.010850694444444444,0,0,0.010850694444444444,14.2578125,0)" xlink:href="#L"/><use transform="matrix(0.010850694444444444,0,0,0.010850694444444444,21.52777777777778,0)" xlink:href="#P"/><use transform="matrix(0.010850694444444444,0,0,0.010850694444444444,30.240885416666664,0)" xlink:href="#Q"/><use transform="matrix(0.010850694444444444,0,0,0.010850694444444444,35.62282986111111,0)" xlink:href="#T"/><use transform="matrix(0.010850694444444444,0,0,0.010850694444444444,48.752170138888886,0)" xlink:href="#J"/></g><path d="M49 0l509-1490h400L1480 0h-339l-115-346H497L386 0H49zm524-585h374c-75-213-124-402-192-666-66 268-110 453-182 666" id="Y"/><path d="M754 19C571 19 479-89 437-179h-14V0H128v-1490h300v560h9c41-89 129-202 319-202 248 0 453 193 453 575 0 372-197 576-455 576zm-92-241c156 0 240-139 240-336 0-196-83-334-240-334-154 0-241 131-241 334 0 202 88 336 241 336" id="Z"/><path d="M572 22C302 22 117-98 78-306l279-48c29 105 101 156 224 156 114 0 185-48 185-115 0-118-228-130-337-155-215-49-322-150-322-317 0-215 187-347 470-347 265 0 424 116 466 298l-266 47c-24-76-87-130-196-130-98 0-174 46-174 113 0 56 38 95 144 117l201 40c216 44 320 143 320 302 0 220-207 367-500 367" id="aa"/><g id="h"><use transform="matrix(0.009765625,0,0,0.009765625,0,0)" xlink:href="#Y"/><use transform="matrix(0.009765625,0,0,0.009765625,14.931640625,0)" xlink:href="#Z"/><use transform="matrix(0.009765625,0,0,0.009765625,27.5390625,0)" xlink:href="#aa"/><use transform="matrix(0.009765625,0,0,0.009765625,38.740234375,0)" xlink:href="#y"/><use transform="matrix(0.009765625,0,0,0.009765625,46.064453125,0)" xlink:href="#A"/><use transform="matrix(0.009765625,0,0,0.009765625,53.935546875,0)" xlink:href="#C"/><use transform="matrix(0.009765625,0,0,0.009765625,65.546875,0)" xlink:href="#D"/><use transform="matrix(0.009765625,0,0,0.009765625,77.314453125,0)" xlink:href="#y"/><use transform="matrix(0.009765625,0,0,0.009765625,84.6875,0)" xlink:href="#F"/><use transform="matrix(0.009765625,0,0,0.009765625,97.919921875,0)" xlink:href="#G"/><use transform="matrix(0.009765625,0,0,0.009765625,103.33984375,0)" xlink:href="#w"/><use transform="matrix(0.009765625,0,0,0.009765625,108.759765625,0)" xlink:href="#x"/><use transform="matrix(0.009765625,0,0,0.009765625,121.2109375,0)" xlink:href="#H"/></g><path d="M936-893l-64 328h240v137H846L764 0H616l84-428H410L328 0H184l78-428H45v-137h244l65-328H121v-137h258l82-432h147l-82 432h293l84-432h144l-84 432h221v137H936zM436-565h291l64-328H500" id="ab"/><path d="M631-1118c283 0 470 204 465 491v113H322c5 250 120 375 344 375 130 0 253-25 370-76v160C925-5 804 20 672 20c-329 0-539-224-539-561 0-331 182-577 498-577zM326-662h573c0-203-91-305-272-305-183 0-284 102-301 305" id="ac"/><path d="M498 0L82-1098h188l240 652c57 154 90 262 100 325h6c67-256 244-708 340-977h189L729 0H498" id="ad"/><path d="M596-1118c288 2 430 92 430 366V0H895l-37-152h-8C752-34 680 17 483 20 272 23 135-98 135-307c0-221 170-337 510-348l203-7c15-197-55-305-244-305-98 0-207 27-328 82l-63-137c131-64 258-96 383-96zm-72 991c194 0 325-116 322-311v-99c-251 15-522-6-522 232 0 119 67 178 200 178" id="ae"/><path d="M532-1413l-268-21v-122h451v1413l352 20V0H188v-123l344-20v-1270" id="af"/><path d="M578-131c239 0 309-137 309-397v-570h182V0H922l-27-147h-10C815-36 704 20 551 20c-261 0-391-134-391-401v-717h182v707c0 173 79 260 236 260" id="ag"/><path d="M1020-150v138C933 9 849 20 768 20 527 20 406-95 406-324v-637H139v-94l267-49 77-287h105v293h438v137H588v637c0 130 64 195 192 195 62 0 142-7 240-21" id="ah"/><path d="M326-731c0 353 139 584 471 588 87 0 196-19 327-58v162c-97 39-217 59-358 59-433-1-637-301-637-753 0-438 243-750 668-750 147 0 274 29 383 86l-78 156c-103-52-204-78-305-78-307 1-471 259-471 588" id="ai"/><path d="M887 0v-707c0-173-79-260-238-260-205 0-307 133-307 398V0H160v-1556h182c-2 202 6 416-8 606h10c69-112 181-168 336-168 259 0 389 134 389 401V0H887" id="aj"/><path d="M739-1436c0 71-43 115-106 115-71 0-107-38-107-115 0-76 36-114 107-114s106 38 106 114zM541-954l-269-21v-123h451v955l352 20V0H197v-123l344-20v-811" id="ak"/><path d="M1092-551c0 322-136 571-430 571-138 0-245-53-322-159h-12c24 220 7 402 12 631H158v-1590h147l27 148h8c73-112 181-168 322-168 294 0 430 246 430 567zM629-967c-241 0-288 156-289 416 0 151 24 259 70 323s120 97 221 97c181 0 272-141 272-422 0-276-91-414-274-414" id="al"/><path d="M1026-301c0 225-197 321-448 321-165 0-290-23-375-69v-166c129 57 252 86 370 86 183 0 275-54 275-162 0-38-16-71-49-99s-108-63-226-106c-156-57-253-112-293-160s-61-105-61-171c2-338 524-340 789-217l-60 149c-121-48-228-72-319-72-157 0-236 44-236 133 0 41 17 74 51 98s111 57 232 101c141 51 234 101 280 151s70 111 70 183" id="am"/><path d="M739-1462h193c-299 251-449 548-449 893 0 347 149 645 447 893H739C443 89 295-208 295-567c0-355 148-653 444-895" id="an"/><path d="M233 0v-1462h187v1296h635V0H233" id="ao"/><path d="M1075-221L152-672v-102l923-451v160L360-723l715 342v160" id="ap"/><path d="M1094-1034c0 310-213 470-541 465H362V0H176v-1462h404c343 0 514 143 514 428zM532-727c244-1 369-71 369-297 0-186-113-279-338-279H362v576h170" id="aq"/><path d="M82-1098h188l262 654c55 137 84 233 89 290h6c15-75 45-172 90-292l239-652h189L670 143c-45 116-99 201-156 261-87 92-259 104-414 71V330c92 17 226 18 286-29 67-53 115-195 153-291" id="ar"/><path d="M1092-551c0 322-136 571-430 571-138 0-245-53-322-159h-12L291 0H158v-1556h182c-2 221 6 379-8 602h8c71-109 179-164 322-164 294 0 430 246 430 567zM629-967c-241 0-289 146-289 416 0 151 24 259 70 323s120 97 221 97c181 0 272-141 272-422 0-276-91-414-274-414" id="as"/><path d="M442-897c93-139 173-221 377-221 79 0 159 15 240 45l-49 166c-82-30-157-45-224-45-221 0-340 134-340 360V0H264v-1098h148l22 201h8" id="at"/><path d="M137-547c0-322 136-571 430-571 137 0 245 53 322 160h12c-24-215-7-376-12-598h182V0H924l-27-147h-8C814-36 706 20 567 20c-294 0-430-246-430-567zm463 416c241 0 288-157 289-416 0-151-23-259-69-323s-121-97-222-97c-181 0-272 141-272 422 0 276 91 414 274 414" id="au"/><path d="M152-381l714-342-714-342v-160l923 451v102L152-221v-160" id="av"/><path d="M770-262l16 24C748-89 683 87 592 289H440c51-215 88-399 111-551h219" id="aw"/><path d="M1087-391c0 281-226 411-532 411-177 0-315-23-414-69v-178c141 57 279 86 414 86 233 0 350-80 350-240 0-69-24-123-71-160s-142-82-285-133c-139-49-239-106-299-174s-90-156-90-264c2-252 211-371 481-371 153 0 291 26 416 78l-64 164c-129-52-249-78-360-78-195 0-293 70-293 209 0 68 22 123 66 164s134 85 270 133c164 58 273 119 328 181s83 143 83 241" id="ax"/><path d="M489 324H299C596 77 745-221 745-569c0-345-149-643-448-893h192c297 241 445 539 445 895 0 360-148 657-445 891" id="ay"/><path d="M715-1556l-43 393 397-111 27 193-379 28 246 326-179 96-176-358-157 358-185-96 242-326-375-28 29-193 391 111-43-393h205" id="az"/><path d="M614-1126c85 0 127 46 127 139s-42 139-127 139-127-46-127-139 42-139 127-139zm0 876c85 0 127 46 127 139S699 29 614 29 487-18 487-111s42-139 127-139" id="aA"/><g id="i"><use transform="matrix(0.009114583333333334,0,0,0.009114583333333334,0,0)" xlink:href="#ab"/><use transform="matrix(0.009114583333333334,0,0,0.009114583333333334,11.201822916666668,0)" xlink:href="#ac"/><use transform="matrix(0.009114583333333334,0,0,0.009114583333333334,22.403645833333336,0)" xlink:href="#ad"/><use transform="matrix(0.009114583333333334,0,0,0.009114583333333334,33.60546875,0)" xlink:href="#ae"/><use transform="matrix(0.009114583333333334,0,0,0.009114583333333334,44.80729166666667,0)" xlink:href="#af"/><use transform="matrix(0.009114583333333334,0,0,0.009114583333333334,56.00911458333334,0)" xlink:href="#ag"/><use transform="matrix(0.009114583333333334,0,0,0.009114583333333334,67.21093750000001,0)" xlink:href="#ae"/><use transform="matrix(0.009114583333333334,0,0,0.009114583333333334,78.41276041666669,0)" xlink:href="#ah"/><use transform="matrix(0.009114583333333334,0,0,0.009114583333333334,89.61458333333336,0)" xlink:href="#ac"/><use transform="matrix(0.009114583333333334,0,0,0.009114583333333334,100.81640625000003,0)" xlink:href="#ai"/><use transform="matrix(0.009114583333333334,0,0,0.009114583333333334,112.01822916666671,0)" xlink:href="#aj"/><use transform="matrix(0.009114583333333334,0,0,0.009114583333333334,123.22005208333337,0)" xlink:href="#ak"/><use transform="matrix(0.009114583333333334,0,0,0.009114583333333334,134.42187500000003,0)" xlink:href="#al"/><use transform="matrix(0.009114583333333334,0,0,0.009114583333333334,145.62369791666669,0)" xlink:href="#am"/><use transform="matrix(0.009114583333333334,0,0,0.009114583333333334,156.82552083333334,0)" xlink:href="#an"/><use transform="matrix(0.009114583333333334,0,0,0.009114583333333334,168.02734375,0)" xlink:href="#ao"/><use transform="matrix(0.009114583333333334,0,0,0.009114583333333334,179.22916666666666,0)" xlink:href="#ak"/><use transform="matrix(0.009114583333333334,0,0,0.009114583333333334,190.43098958333331,0)" xlink:href="#am"/><use transform="matrix(0.009114583333333334,0,0,0.009114583333333334,201.63281249999997,0)" xlink:href="#ah"/><use transform="matrix(0.009114583333333334,0,0,0.009114583333333334,212.8346354166666,0)" xlink:href="#ap"/><use transform="matrix(0.009114583333333334,0,0,0.009114583333333334,224.0364583333333,0)" xlink:href="#aq"/><use transform="matrix(0.009114583333333334,0,0,0.009114583333333334,235.23828124999994,0)" xlink:href="#af"/><use transform="matrix(0.009114583333333334,0,0,0.009114583333333334,246.44010416666663,0)" xlink:href="#ae"/><use transform="matrix(0.009114583333333334,0,0,0.009114583333333334,257.64192708333326,0)" xlink:href="#ar"/><use transform="matrix(0.009114583333333334,0,0,0.009114583333333334,268.84374999999994,0)" xlink:href="#ae"/><use transform="matrix(0.009114583333333334,0,0,0.009114583333333334,280.04557291666663,0)" xlink:href="#as"/><use transform="matrix(0.009114583333333334,0,0,0.009114583333333334,291.2473958333333,0)" xlink:href="#af"/><use transform="matrix(0.009114583333333334,0,0,0.009114583333333334,302.44921875,0)" xlink:href="#ac"/><use transform="matrix(0.009114583333333334,0,0,0.009114583333333334,313.6510416666667,0)" xlink:href="#ai"/><use transform="matrix(0.009114583333333334,0,0,0.009114583333333334,324.85286458333337,0)" xlink:href="#ae"/><use transform="matrix(0.009114583333333334,0,0,0.009114583333333334,336.0546875000001,0)" xlink:href="#at"/><use transform="matrix(0.009114583333333334,0,0,0.009114583333333334,347.25651041666674,0)" xlink:href="#au"/><use transform="matrix(0.009114583333333334,0,0,0.009114583333333334,358.4583333333334,0)" xlink:href="#av"/><use transform="matrix(0.009114583333333334,0,0,0.009114583333333334,369.6601562500001,0)" xlink:href="#aw"/><use transform="matrix(0.009114583333333334,0,0,0.009114583333333334,380.8619791666668,0)" xlink:href="#aq"/><use transform="matrix(0.009114583333333334,0,0,0.009114583333333334,392.0638020833335,0)" xlink:href="#af"/><use transform="matrix(0.009114583333333334,0,0,0.009114583333333334,403.26562500000017,0)" xlink:href="#ae"/><use transform="matrix(0.009114583333333334,0,0,0.009114583333333334,414.4674479166668,0)" xlink:href="#ar"/><use transform="matrix(0.009114583333333334,0,0,0.009114583333333334,425.66927083333354,0)" xlink:href="#ac"/><use transform="matrix(0.009114583333333334,0,0,0.009114583333333334,436.8710937500002,0)" xlink:href="#at"/><use transform="matrix(0.009114583333333334,0,0,0.009114583333333334,448.0729166666669,0)" xlink:href="#ax"/><use transform="matrix(0.009114583333333334,0,0,0.009114583333333334,459.27473958333366,0)" xlink:href="#ah"/><use transform="matrix(0.009114583333333334,0,0,0.009114583333333334,470.4765625000003,0)" xlink:href="#ae"/><use transform="matrix(0.009114583333333334,0,0,0.009114583333333334,481.67838541666697,0)" xlink:href="#ah"/><use transform="matrix(0.009114583333333334,0,0,0.009114583333333334,492.88020833333366,0)" xlink:href="#ag"/><use transform="matrix(0.009114583333333334,0,0,0.009114583333333334,504.08203125000034,0)" xlink:href="#am"/><use transform="matrix(0.009114583333333334,0,0,0.009114583333333334,515.283854166667,0)" xlink:href="#ay"/><use transform="matrix(0.009114583333333334,0,0,0.009114583333333334,526.4856770833336,0)" xlink:href="#az"/><use transform="matrix(0.009114583333333334,0,0,0.009114583333333334,537.6875000000002,0)" xlink:href="#aA"/></g><path d="M887 0v-707c0-173-79-260-238-260-205 0-307 133-307 398V0H160v-1098h147l27 148h10c69-112 181-168 336-168 259 0 389 134 389 401V0H887" id="aB"/><g id="j"><use transform="matrix(0.009114583333333334,0,0,0.009114583333333334,0,0)" xlink:href="#ak"/><use transform="matrix(0.009114583333333334,0,0,0.009114583333333334,11.201822916666668,0)" xlink:href="#aB"/><use transform="matrix(0.009114583333333334,0,0,0.009114583333333334,22.403645833333336,0)" xlink:href="#ah"/></g><path d="M539-647H152v-150h387v-389h149v389h387v150H688v385H539v-385" id="aC"/><path d="M188-739c-1-248 156-381 410-379 57 0 107 7 150 20h378v113l-196 27c43 57 65 128 65 213 2 253-212 385-489 346-67 37-100 82-100 133 0 56 54 84 161 84h187c216-2 358 93 358 297 0 251-188 377-565 377-145 0-255-26-331-80S102 283 102 186c0-141 80-231 240-270-64-31-96-83-96-154 0-75 44-139 133-192-109-41-191-166-191-309zm406 221c149 0 223-77 223-230 0-159-75-239-225-239s-225 81-225 242c0 151 76 227 227 227zm346 649c0-146-78-149-248-149H504c-153 0-230 66-230 198 0 116 90 174 271 174 263 0 395-74 395-223" id="aD"/><path d="M1147-745C1147-274 901 1 436 0H135v-1462h342c429-3 670 280 670 717zm-825-558v1143h96c355 0 532-193 532-579 0-376-164-564-493-564H322" id="aE"/><path d="M172-543c0-365 197-575 553-575 119 0 231 20 336 59l-62 158c-100-38-189-57-268-57-247 0-371 138-371 413 0 271 120 406 361 406 105 0 212-21 321-62v160C953 0 843 20 713 20c-347 1-541-210-541-563" id="aF"/><path d="M1112-551c0 331-186 571-502 571-301 0-495-251-495-571 0-330 184-567 501-567 302 0 496 249 496 567zM614-131c207 0 310-140 310-420 0-277-104-416-312-416-206 0-309 139-309 416 0 280 104 420 311 420" id="aG"/><g id="k"><use transform="matrix(0.009114583333333334,0,0,0.009114583333333334,0,0)" xlink:href="#aC"/><use transform="matrix(0.009114583333333334,0,0,0.009114583333333334,11.201822916666668,0)" xlink:href="#aD"/><use transform="matrix(0.009114583333333334,0,0,0.009114583333333334,22.403645833333336,0)" xlink:href="#ac"/><use transform="matrix(0.009114583333333334,0,0,0.009114583333333334,33.60546875,0)" xlink:href="#ah"/><use transform="matrix(0.009114583333333334,0,0,0.009114583333333334,44.80729166666667,0)" xlink:href="#aE"/><use transform="matrix(0.009114583333333334,0,0,0.009114583333333334,56.00911458333334,0)" xlink:href="#ac"/><use transform="matrix(0.009114583333333334,0,0,0.009114583333333334,67.21093750000001,0)" xlink:href="#am"/><use transform="matrix(0.009114583333333334,0,0,0.009114583333333334,78.41276041666669,0)" xlink:href="#aF"/><use transform="matrix(0.009114583333333334,0,0,0.009114583333333334,89.61458333333336,0)" xlink:href="#at"/><use transform="matrix(0.009114583333333334,0,0,0.009114583333333334,100.81640625000003,0)" xlink:href="#ak"/><use transform="matrix(0.009114583333333334,0,0,0.009114583333333334,112.01822916666671,0)" xlink:href="#al"/><use transform="matrix(0.009114583333333334,0,0,0.009114583333333334,123.22005208333337,0)" xlink:href="#ah"/><use transform="matrix(0.009114583333333334,0,0,0.009114583333333334,134.42187500000003,0)" xlink:href="#ak"/><use transform="matrix(0.009114583333333334,0,0,0.009114583333333334,145.62369791666669,0)" xlink:href="#aG"/><use transform="matrix(0.009114583333333334,0,0,0.009114583333333334,156.82552083333334,0)" xlink:href="#aB"/><use transform="matrix(0.009114583333333334,0,0,0.009114583333333334,168.02734375,0)" xlink:href="#an"/><use transform="matrix(0.009114583333333334,0,0,0.009114583333333334,179.22916666666666,0)" xlink:href="#ay"/><use transform="matrix(0.009114583333333334,0,0,0.009114583333333334,190.43098958333331,0)" xlink:href="#az"/><use transform="matrix(0.009114583333333334,0,0,0.009114583333333334,201.63281249999997,0)" xlink:href="#aA"/></g><g id="l"><use transform="matrix(0.009114583333333334,0,0,0.009114583333333334,0,0)" xlink:href="#ax"/><use transform="matrix(0.009114583333333334,0,0,0.009114583333333334,11.201822916666668,0)" xlink:href="#ah"/><use transform="matrix(0.009114583333333334,0,0,0.009114583333333334,22.403645833333336,0)" xlink:href="#at"/><use transform="matrix(0.009114583333333334,0,0,0.009114583333333334,33.60546875,0)" xlink:href="#ak"/><use transform="matrix(0.009114583333333334,0,0,0.009114583333333334,44.80729166666667,0)" xlink:href="#aB"/><use transform="matrix(0.009114583333333334,0,0,0.009114583333333334,56.00911458333334,0)" xlink:href="#aD"/></g><path d="M180 0v-1490h528c311 0 458 177 458 395 0 191-114 278-244 313v14c139 9 302 137 302 371 0 225-148 397-499 397H180zm190-168h350c232 0 321-102 321-231 0-149-120-277-311-277H370v508zm0-668h328c160 0 286-101 286-255 0-129-87-231-280-231H370v486" id="aH"/><g id="n"><use transform="matrix(0.009765625,0,0,0.009765625,0,0)" xlink:href="#aH"/><use transform="matrix(0.009765625,0,0,0.009765625,13.0859375,0)" xlink:href="#S"/><use transform="matrix(0.009765625,0,0,0.009765625,25.078125,0)" xlink:href="#N"/><use transform="matrix(0.009765625,0,0,0.009765625,35.634765625,0)" xlink:href="#N"/><use transform="matrix(0.009765625,0,0,0.009765625,46.19140625,0)" xlink:href="#F"/><use transform="matrix(0.009765625,0,0,0.009765625,59.423828125,0)" xlink:href="#G"/><use transform="matrix(0.009765625,0,0,0.009765625,64.84375,0)" xlink:href="#w"/><use transform="matrix(0.009765625,0,0,0.009765625,70.263671875,0)" xlink:href="#x"/><use transform="matrix(0.009765625,0,0,0.009765625,82.71484375,0)" xlink:href="#H"/></g><g id="o"><use transform="matrix(0.009114583333333334,0,0,0.009114583333333334,0,0)" xlink:href="#ab"/><use transform="matrix(0.009114583333333334,0,0,0.009114583333333334,11.201822916666668,0)" xlink:href="#ac"/><use transform="matrix(0.009114583333333334,0,0,0.009114583333333334,22.403645833333336,0)" xlink:href="#ad"/><use transform="matrix(0.009114583333333334,0,0,0.009114583333333334,33.60546875,0)" xlink:href="#ae"/><use transform="matrix(0.009114583333333334,0,0,0.009114583333333334,44.80729166666667,0)" xlink:href="#af"/><use transform="matrix(0.009114583333333334,0,0,0.009114583333333334,56.00911458333334,0)" xlink:href="#ag"/><use transform="matrix(0.009114583333333334,0,0,0.009114583333333334,67.21093750000001,0)" xlink:href="#ae"/><use transform="matrix(0.009114583333333334,0,0,0.009114583333333334,78.41276041666669,0)" xlink:href="#ah"/><use transform="matrix(0.009114583333333334,0,0,0.009114583333333334,89.61458333333336,0)" xlink:href="#ac"/><use transform="matrix(0.009114583333333334,0,0,0.009114583333333334,100.81640625000003,0)" xlink:href="#ai"/><use transform="matrix(0.009114583333333334,0,0,0.009114583333333334,112.01822916666671,0)" xlink:href="#aj"/><use transform="matrix(0.009114583333333334,0,0,0.009114583333333334,123.22005208333337,0)" xlink:href="#ak"/><use transform="matrix(0.009114583333333334,0,0,0.009114583333333334,134.42187500000003,0)" xlink:href="#al"/><use transform="matrix(0.009114583333333334,0,0,0.009114583333333334,145.62369791666669,0)" xlink:href="#am"/><use transform="matrix(0.009114583333333334,0,0,0.009114583333333334,156.82552083333334,0)" xlink:href="#an"/><use transform="matrix(0.009114583333333334,0,0,0.009114583333333334,168.02734375,0)" xlink:href="#ao"/><use transform="matrix(0.009114583333333334,0,0,0.009114583333333334,179.22916666666666,0)" xlink:href="#ak"/><use transform="matrix(0.009114583333333334,0,0,0.009114583333333334,190.43098958333331,0)" xlink:href="#am"/><use transform="matrix(0.009114583333333334,0,0,0.009114583333333334,201.63281249999997,0)" xlink:href="#ah"/><use transform="matrix(0.009114583333333334,0,0,0.009114583333333334,212.8346354166666,0)" xlink:href="#ap"/><use transform="matrix(0.009114583333333334,0,0,0.009114583333333334,224.0364583333333,0)" xlink:href="#aq"/><use transform="matrix(0.009114583333333334,0,0,0.009114583333333334,235.23828124999994,0)" xlink:href="#af"/><use transform="matrix(0.009114583333333334,0,0,0.009114583333333334,246.44010416666663,0)" xlink:href="#ae"/><use transform="matrix(0.009114583333333334,0,0,0.009114583333333334,257.64192708333326,0)" xlink:href="#ar"/><use transform="matrix(0.009114583333333334,0,0,0.009114583333333334,268.84374999999994,0)" xlink:href="#ae"/><use transform="matrix(0.009114583333333334,0,0,0.009114583333333334,280.04557291666663,0)" xlink:href="#as"/><use transform="matrix(0.009114583333333334,0,0,0.009114583333333334,291.2473958333333,0)" xlink:href="#af"/><use transform="matrix(0.009114583333333334,0,0,0.009114583333333334,302.44921875,0)" xlink:href="#ac"/><use transform="matrix(0.009114583333333334,0,0,0.009114583333333334,313.6510416666667,0)" xlink:href="#ai"/><use transform="matrix(0.009114583333333334,0,0,0.009114583333333334,324.85286458333337,0)" xlink:href="#ae"/><use transform="matrix(0.009114583333333334,0,0,0.009114583333333334,336.0546875000001,0)" xlink:href="#at"/><use transform="matrix(0.009114583333333334,0,0,0.009114583333333334,347.25651041666674,0)" xlink:href="#au"/><use transform="matrix(0.009114583333333334,0,0,0.009114583333333334,358.4583333333334,0)" xlink:href="#av"/><use transform="matrix(0.009114583333333334,0,0,0.009114583333333334,369.6601562500001,0)" xlink:href="#aw"/><use transform="matrix(0.009114583333333334,0,0,0.009114583333333334,380.8619791666668,0)" xlink:href="#aq"/><use transform="matrix(0.009114583333333334,0,0,0.009114583333333334,392.0638020833335,0)" xlink:href="#af"/><use transform="matrix(0.009114583333333334,0,0,0.009114583333333334,403.26562500000017,0)" xlink:href="#ae"/><use transform="matrix(0.009114583333333334,0,0,0.009114583333333334,414.4674479166668,0)" xlink:href="#ar"/><use transform="matrix(0.009114583333333334,0,0,0.009114583333333334,425.66927083333354,0)" xlink:href="#ac"/><use transform="matrix(0.009114583333333334,0,0,0.009114583333333334,436.8710937500002,0)" xlink:href="#at"/><use transform="matrix(0.009114583333333334,0,0,0.009114583333333334,448.0729166666669,0)" xlink:href="#ax"/><use transform="matrix(0.009114583333333334,0,0,0.009114583333333334,459.27473958333366,0)" xlink:href="#ah"/><use transform="matrix(0.009114583333333334,0,0,0.009114583333333334,470.4765625000003,0)" xlink:href="#ae"/><use transform="matrix(0.009114583333333334,0,0,0.009114583333333334,481.67838541666697,0)" xlink:href="#ah"/><use transform="matrix(0.009114583333333334,0,0,0.009114583333333334,492.88020833333366,0)" xlink:href="#ag"/><use transform="matrix(0.009114583333333334,0,0,0.009114583333333334,504.08203125000034,0)" xlink:href="#am"/><use transform="matrix(0.009114583333333334,0,0,0.009114583333333334,515.283854166667,0)" xlink:href="#ay"/><use transform="matrix(0.009114583333333334,0,0,0.009114583333333334,526.4856770833336,0)" xlink:href="#aA"/></g><g id="p"><use transform="matrix(0.009114583333333334,0,0,0.009114583333333334,0,0)" xlink:href="#aC"/><use transform="matrix(0.009114583333333334,0,0,0.009114583333333334,11.201822916666668,0)" xlink:href="#aD"/><use transform="matrix(0.009114583333333334,0,0,0.009114583333333334,22.403645833333336,0)" xlink:href="#ac"/><use transform="matrix(0.009114583333333334,0,0,0.009114583333333334,33.60546875,0)" xlink:href="#ah"/><use transform="matrix(0.009114583333333334,0,0,0.009114583333333334,44.80729166666667,0)" xlink:href="#aE"/><use transform="matrix(0.009114583333333334,0,0,0.009114583333333334,56.00911458333334,0)" xlink:href="#ac"/><use transform="matrix(0.009114583333333334,0,0,0.009114583333333334,67.21093750000001,0)" xlink:href="#am"/><use transform="matrix(0.009114583333333334,0,0,0.009114583333333334,78.41276041666669,0)" xlink:href="#aF"/><use transform="matrix(0.009114583333333334,0,0,0.009114583333333334,89.61458333333336,0)" xlink:href="#at"/><use transform="matrix(0.009114583333333334,0,0,0.009114583333333334,100.81640625000003,0)" xlink:href="#ak"/><use transform="matrix(0.009114583333333334,0,0,0.009114583333333334,112.01822916666671,0)" xlink:href="#al"/><use transform="matrix(0.009114583333333334,0,0,0.009114583333333334,123.22005208333337,0)" xlink:href="#ah"/><use transform="matrix(0.009114583333333334,0,0,0.009114583333333334,134.42187500000003,0)" xlink:href="#ak"/><use transform="matrix(0.009114583333333334,0,0,0.009114583333333334,145.62369791666669,0)" xlink:href="#aG"/><use transform="matrix(0.009114583333333334,0,0,0.009114583333333334,156.82552083333334,0)" xlink:href="#aB"/><use transform="matrix(0.009114583333333334,0,0,0.009114583333333334,168.02734375,0)" xlink:href="#an"/><use transform="matrix(0.009114583333333334,0,0,0.009114583333333334,179.22916666666666,0)" xlink:href="#ay"/><use transform="matrix(0.009114583333333334,0,0,0.009114583333333334,190.43098958333331,0)" xlink:href="#aA"/></g><path d="M628 22C291 22 81-210 81-554c0-346 210-578 547-578 336 0 547 232 547 578 0 344-211 576-547 576zm0-236c160 0 242-146 242-341 0-197-82-341-242-341S387-753 387-555c0 195 81 341 241 341" id="aI"/><path d="M135 0v-1490h468l242 684c30 94 76 293 111 455 34-161 80-360 110-455l238-684h470V0h-307c0-447-3-765 11-1227-122 503-246 788-395 1227H826C676-435 552-717 427-1215c15 453 11 775 11 1215H135" id="aJ"/><path d="M786 20C389 20 94-260 94-744c0-487 299-766 692-766 339 0 597 194 641 529h-309c-28-162-156-258-326-258-233 0-388 179-388 495 0 323 157 493 387 493 170 0 298-97 328-259h309c-34 277-266 530-642 530" id="aK"/><path d="M625 442c-280 0-454-114-503-274l258-72c28 63 97 128 243 128 153 0 246-69 246-216v-206h-23C805-108 717-16 536-16 284-16 81-191 81-561c0-378 208-571 456-571 188 0 280 113 321 202h13v-188h295V-9c0 303-226 451-541 451zm5-686c153 0 240-119 240-319 0-198-86-329-240-329-158 0-241 137-241 329 0 195 85 319 241 319" id="aL"/><g id="r"><use transform="matrix(0.009765625,0,0,0.009765625,0,0)" xlink:href="#F"/><use transform="matrix(0.009765625,0,0,0.009765625,13.232421875,0)" xlink:href="#aI"/><use transform="matrix(0.009765625,0,0,0.009765625,25.498046875,0)" xlink:href="#aa"/><use transform="matrix(0.009765625,0,0,0.009765625,36.69921875,0)" xlink:href="#aa"/><use transform="matrix(0.009765625,0,0,0.009765625,47.900390625,0)" xlink:href="#aJ"/><use transform="matrix(0.009765625,0,0,0.009765625,66.533203125,0)" xlink:href="#aI"/><use transform="matrix(0.009765625,0,0,0.009765625,78.798828125,0)" xlink:href="#H"/><use transform="matrix(0.009765625,0,0,0.009765625,91.40625,0)" xlink:href="#w"/><use transform="matrix(0.009765625,0,0,0.009765625,96.826171875,0)" xlink:href="#B"/><use transform="matrix(0.009765625,0,0,0.009765625,104.951171875,0)" xlink:href="#w"/><use transform="matrix(0.009765625,0,0,0.009765625,110.37109375,0)" xlink:href="#z"/><use transform="matrix(0.009765625,0,0,0.009765625,122.28515625,0)" xlink:href="#A"/><use transform="matrix(0.009765625,0,0,0.009765625,130.4296875,0)" xlink:href="#aa"/><use transform="matrix(0.009765625,0,0,0.009765625,141.630859375,0)" xlink:href="#aK"/><use transform="matrix(0.009765625,0,0,0.009765625,156.42578125,0)" xlink:href="#C"/><use transform="matrix(0.009765625,0,0,0.009765625,168.037109375,0)" xlink:href="#y"/><use transform="matrix(0.009765625,0,0,0.009765625,175.458984375,0)" xlink:href="#C"/><use transform="matrix(0.009765625,0,0,0.009765625,187.0703125,0)" xlink:href="#G"/><use transform="matrix(0.009765625,0,0,0.009765625,192.490234375,0)" xlink:href="#aI"/><use transform="matrix(0.009765625,0,0,0.009765625,204.755859375,0)" xlink:href="#aL"/></g><path d="M168-439c-4-248 141-341 290-341 98 0 169 39 277 133 70 61 104 84 155 84 82 0 133-61 133-177h164c3 247-143 340-290 340-101 0-174-43-277-132-72-62-105-84-155-84-78 0-135 50-133 177H168" id="aM"/><path d="M180 0v-1490h510c348 0 508 194 508 460 0 198-88 351-276 417L1256 0h-220L726-579c-117 2-238 0-356 1V0H180zm190-747h312c235 0 327-108 327-283 0-177-92-293-329-293H370v576" id="aN"/><path d="M471 26C259 26 90-98 90-318c0-256 228-303 435-329 202-27 287-16 287-108 0-139-79-219-234-219-161 0-248 86-283 164l-173-57c86-203 278-265 451-265 150 0 419 46 419 395V0H815v-152h-12C765-73 660 26 471 26zm31-159c199 0 310-134 310-271v-155c-30 35-226 55-295 64-131 17-246 59-246 186 0 116 97 176 231 176" id="aO"/><path d="M577 24c-279 0-473-224-473-580 0-354 195-576 474-576 218 0 287 134 324 193h14v-551h180V0H922v-173h-20C865-111 790 24 577 24zm27-161c203 0 314-172 314-421 0-247-108-413-314-413-212 0-317 181-317 413 0 235 108 421 317 421" id="aP"/><path d="M158 0v-1118h175l1 205c55-151 181-225 313-225 147 0 245 90 285 228 53-141 190-228 352-228 194 0 352 125 352 384V0h-181v-749c0-161-105-225-225-225-151 0-243 103-243 244V0H807v-767c0-124-93-207-219-207-131 0-250 92-250 270V0H158" id="aQ"/><g id="s"><use transform="matrix(0.010850694444444444,0,0,0.010850694444444444,0,0)" xlink:href="#aM"/><use transform="matrix(0.010850694444444444,0,0,0.010850694444444444,14.702690972222221,0)" xlink:href="#J"/><use transform="matrix(0.010850694444444444,0,0,0.010850694444444444,28.331163194444443,0)" xlink:href="#K"/><use transform="matrix(0.010850694444444444,0,0,0.010850694444444444,41.28689236111111,0)" xlink:href="#L"/><use transform="matrix(0.010850694444444444,0,0,0.010850694444444444,48.556857638888886,0)" xlink:href="#aN"/><use transform="matrix(0.010850694444444444,0,0,0.010850694444444444,62.74956597222222,0)" xlink:href="#aO"/><use transform="matrix(0.010850694444444444,0,0,0.010850694444444444,75.22786458333333,0)" xlink:href="#T"/><use transform="matrix(0.010850694444444444,0,0,0.010850694444444444,88.3572048611111,0)" xlink:href="#aP"/><use transform="matrix(0.010850694444444444,0,0,0.010850694444444444,101.96397569444441,0)" xlink:href="#S"/><use transform="matrix(0.010850694444444444,0,0,0.010850694444444444,115.2886284722222,0)" xlink:href="#aQ"/><use transform="matrix(0.010850694444444444,0,0,0.010850694444444444,134.75477430555554,0)" xlink:href="#U"/><use transform="matrix(0.010850694444444444,0,0,0.010850694444444444,142.86024305555554,0)" xlink:href="#V"/></g><path d="M783 20c-382 0-661-292-661-764 0-473 279-766 661-766 302 0 548 182 601 489h-190c-42-204-217-313-411-313-268 0-476 208-476 590 0 381 209 588 476 588 195 0 369-110 411-313h190c-52 303-296 489-601 489" id="aR"/><path d="M677 24c-213 0-288-135-325-197h-20V0H158v-1490h180v551h14c37-59 106-193 324-193 279 0 474 222 474 576 0 356-194 580-473 580zm-27-161c209 0 317-186 317-421 0-232-105-413-317-413-206 0-314 166-314 413 0 249 111 421 314 421" id="aS"/><path d="M180 0v-1490h270l367 940c28 72 75 218 110 339 35-117 81-264 110-339l362-940h271V0h-187c2-448-5-837 7-1287-157 497-311 829-483 1287H842C666-458 514-784 354-1284c12 438 5 843 7 1284H180" id="aT"/><path d="M678-1118v154H420V0H240v-964H20v-154h220v-149c0-194 155-293 318-293 85 0 141 18 168 30l-50 154c-19-6-47-17-97-17-111 0-159 58-159 166v109h258" id="aU"/><g id="t"><use transform="matrix(0.010850694444444444,0,0,0.010850694444444444,0,0)" xlink:href="#aR"/><use transform="matrix(0.010850694444444444,0,0,0.010850694444444444,16.23263888888889,0)" xlink:href="#S"/><use transform="matrix(0.010850694444444444,0,0,0.010850694444444444,29.557291666666664,0)" xlink:href="#aQ"/><use transform="matrix(0.010850694444444444,0,0,0.010850694444444444,49.0234375,0)" xlink:href="#aS"/><use transform="matrix(0.010850694444444444,0,0,0.010850694444444444,62.63020833333333,0)" xlink:href="#Q"/><use transform="matrix(0.010850694444444444,0,0,0.010850694444444444,68.01215277777777,0)" xlink:href="#T"/><use transform="matrix(0.010850694444444444,0,0,0.010850694444444444,81.14149305555554,0)" xlink:href="#aO"/><use transform="matrix(0.010850694444444444,0,0,0.010850694444444444,93.61979166666666,0)" xlink:href="#L"/><use transform="matrix(0.010850694444444444,0,0,0.010850694444444444,100.88975694444441,0)" xlink:href="#Q"/><use transform="matrix(0.010850694444444444,0,0,0.010850694444444444,106.27170138888887,0)" xlink:href="#S"/><use transform="matrix(0.010850694444444444,0,0,0.010850694444444444,119.59635416666664,0)" xlink:href="#T"/><use transform="matrix(0.010850694444444444,0,0,0.010850694444444444,132.72569444444443,0)" xlink:href="#aT"/><use transform="matrix(0.010850694444444444,0,0,0.010850694444444444,152.79947916666666,0)" xlink:href="#S"/><use transform="matrix(0.010850694444444444,0,0,0.010850694444444444,166.12413194444443,0)" xlink:href="#aP"/><use transform="matrix(0.010850694444444444,0,0,0.010850694444444444,179.73090277777777,0)" xlink:href="#Q"/><use transform="matrix(0.010850694444444444,0,0,0.010850694444444444,185.11284722222223,0)" xlink:href="#aU"/><use transform="matrix(0.010850694444444444,0,0,0.010850694444444444,193.33767361111111,0)" xlink:href="#Q"/><use transform="matrix(0.010850694444444444,0,0,0.010850694444444444,198.7196180555556,0)" xlink:href="#K"/><use transform="matrix(0.010850694444444444,0,0,0.010850694444444444,211.67534722222223,0)" xlink:href="#P"/></g><path d="M513 14c-232 0-385-159-385-421v-711h300v659c0 139 76 222 202 222 127 0 217-86 217-234v-647h301V0H864l-4-232C797-74 683 14 513 14" id="aV"/><g id="u"><use transform="matrix(0.009765625,0,0,0.009765625,0,0)" xlink:href="#aJ"/><use transform="matrix(0.009765625,0,0,0.009765625,18.6328125,0)" xlink:href="#aI"/><use transform="matrix(0.009765625,0,0,0.009765625,30.8984375,0)" xlink:href="#H"/><use transform="matrix(0.009765625,0,0,0.009765625,43.505859375,0)" xlink:href="#w"/><use transform="matrix(0.009765625,0,0,0.009765625,48.92578125,0)" xlink:href="#B"/><use transform="matrix(0.009765625,0,0,0.009765625,57.05078125,0)" xlink:href="#w"/><use transform="matrix(0.009765625,0,0,0.009765625,62.470703125,0)" xlink:href="#z"/><use transform="matrix(0.009765625,0,0,0.009765625,74.384765625,0)" xlink:href="#A"/><use transform="matrix(0.009765625,0,0,0.009765625,82.529296875,0)" xlink:href="#aa"/><use transform="matrix(0.009765625,0,0,0.009765625,93.73046875,0)" xlink:href="#F"/><use transform="matrix(0.009765625,0,0,0.009765625,106.962890625,0)" xlink:href="#aV"/><use transform="matrix(0.009765625,0,0,0.009765625,119.4140625,0)" xlink:href="#w"/><use transform="matrix(0.009765625,0,0,0.009765625,124.833984375,0)" xlink:href="#G"/><use transform="matrix(0.009765625,0,0,0.009765625,130.25390625,0)" xlink:href="#H"/><use transform="matrix(0.009765625,0,0,0.009765625,142.861328125,0)" xlink:href="#z"/><use transform="matrix(0.009765625,0,0,0.009765625,154.775390625,0)" xlink:href="#A"/></g></defs></g></svg>